<svg xmlns="http://www.w3.org/2000/svg" width="22.406" height="28.53" viewBox="0 0 22.406 28.53">
  <defs>
    <style>
      .cls-1 {
        fill: #fff;
        fill-rule: evenodd;
      }
    </style>
  </defs>
  <path id="Address_Icon" data-name="Address Icon" class="cls-1" d="M807.2,6599.46a11.111,11.111,0,0,0-11.205,10.99c0,4.34,1.849,8.72,5.345,12.68a28.007,28.007,0,0,0,5.311,4.7,1.024,1.024,0,0,0,1.1,0,27.985,27.985,0,0,0,5.31-4.7c3.5-3.96,5.346-8.34,5.346-12.68a11.112,11.112,0,0,0-11.206-10.99h0Zm0,26.34c-2.061-1.51-9.2-7.31-9.2-15.35a9.2,9.2,0,0,1,18.393,0c0,8.04-7.136,13.84-9.2,15.35h0Zm0,0,0-19.71a4.366,4.366,0,1,0,4.447,4.36,4.412,4.412,0,0,0-4.447-4.36h0Zm0,6.75a2.39,2.39,0,1,1,2.438-2.39,2.416,2.416,0,0,1-2.438,2.39h0Zm0,0" transform="translate(-796 -6599.47)"/>
</svg>
