<svg xmlns="http://www.w3.org/2000/svg" width="32.688" height="21.18" viewBox="0 0 32.688 21.18">
  <defs>
    <style>
      .cls-1 {
        fill: #fff;
        fill-rule: evenodd;
      }
    </style>
  </defs>
  <path id="Email_Icon" data-name="Email Icon" class="cls-1" d="M823.237,6564l-10.589,8.88-10.59-8.88a1.048,1.048,0,0,0-1.436.08,0.939,0.939,0,0,0,.09,1.37l11.264,9.45a1.062,1.062,0,0,0,1.345,0l11.261-9.45a0.938,0.938,0,0,0,.091-1.37,1.048,1.048,0,0,0-1.436-.08h0Zm0,0,2.707-4.12H799.35a2.99,2.99,0,0,0-3.052,2.91v15.36a2.99,2.99,0,0,0,3.052,2.91h26.594a2.99,2.99,0,0,0,3.052-2.91v-15.36a2.99,2.99,0,0,0-3.052-2.91h0Zm1.018,18.27a1,1,0,0,1-1.018.97H799.35a1,1,0,0,1-1.017-.97v-15.36a0.992,0.992,0,0,1,1.017-.97h26.594a0.993,0.993,0,0,1,1.018.97v15.36Zm0,0" transform="translate(-796.312 -6559.88)"/>
</svg>
