<svg xmlns="http://www.w3.org/2000/svg" width="28" height="27.62" viewBox="0 0 28 27.62">
  <defs>
    <style>
      .cls-1 {
        fill: #fff;
        fill-rule: evenodd;
      }
    </style>
  </defs>
  <path id="Phone_Icon" data-name="Phone Icon" class="cls-1" d="M820.422,6515.63a13.113,13.113,0,0,0-9.116-3.62,0.981,0.981,0,1,0,0,1.96,11,11,0,0,1,7.672,3.05,10.1,10.1,0,0,1,3.178,7.35,1.023,1.023,0,0,0,2.043,0,12.02,12.02,0,0,0-3.777-8.74h0Zm-4.2,8.74a1.023,1.023,0,0,0,2.044,0,6.826,6.826,0,0,0-6.958-6.67,0.981,0.981,0,1,0,0,1.96,4.819,4.819,0,0,1,4.914,4.71h0Zm0,0-2.26,4.99a3.1,3.1,0,0,0-2.731,1.56,0.951,0.951,0,0,0,.266,1.36,1.05,1.05,0,0,0,1.42-.25,1.113,1.113,0,0,1,.93-0.72,13.2,13.2,0,0,1,4.714,3.31,0.985,0.985,0,0,1-.009.72,3.046,3.046,0,0,1-4.376,2.02,28.893,28.893,0,0,1-9.471-5.91h0a27.538,27.538,0,0,1-6.155-9.06,3.03,3.03,0,0,1-.088-2.52,3.512,3.512,0,0,1,2.2-1.67,1.057,1.057,0,0,1,.743-0.01,12.666,12.666,0,0,1,3.456,4.5c0.015,0.28-.09.47-0.746,0.9a0.954,0.954,0,0,0-.267,1.36,1.041,1.041,0,0,0,1.419.26,2.938,2.938,0,0,0,1.634-2.62c-0.088-1.56-3.263-5.7-4.78-6.24a3.243,3.243,0,0,0-2.11-.01,5.462,5.462,0,0,0-3.411,2.72,4.848,4.848,0,0,0,.054,4.07,29.571,29.571,0,0,0,6.605,9.71,0.039,0.039,0,0,1,.021.02,31.109,31.109,0,0,0,10.124,6.32,6.359,6.359,0,0,0,2.281.45,4.85,4.85,0,0,0,1.967-.4,5.368,5.368,0,0,0,2.835-3.27,2.843,2.843,0,0,0-.01-2.02c-0.56-1.46-4.881-4.5-6.516-4.58h0Zm0,0" transform="translate(-796.188 -6512)"/>
</svg>
