<svg xmlns="http://www.w3.org/2000/svg" width="165" height="127" viewBox="0 0 165 127">
  <defs>
    <style>
      .cls-1 {
        fill: #fff;
        fill-rule: evenodd;
      }
    </style>
  </defs>
  <path class="cls-1" d="M1133.61,2034.04a4.383,4.383,0,1,1,6.1-1.03A4.4,4.4,0,0,1,1133.61,2034.04Zm79.46-67.35a9.31,9.31,0,0,0-17.92-3.57,29.76,29.76,0,0,0-17.65-5.77,30.082,30.082,0,1,0,27.72,18.57A9.343,9.343,0,0,0,1213.07,1966.69Zm-35.57,44.92a24.17,24.17,0,1,1,24.1-24.17A24.158,24.158,0,0,1,1177.5,2011.61Zm26.26-41.5a3.42,3.42,0,1,1,3.41-3.42A3.416,3.416,0,0,1,1203.76,1970.11Zm50.91-39.1h-23.74a2.965,2.965,0,0,0,0,5.93h23.17v7.64H1100.91v-7.64h116.24a2.965,2.965,0,0,0,0-5.93H1100.34a5.363,5.363,0,0,0-5.34,5.36v8.78a5.354,5.354,0,0,0,5.34,5.35h22.5v7.77a2.955,2.955,0,1,0,5.91,0v-7.77h97.51v24.97a48.755,48.755,0,1,1-97.51,0v-3.38a2.955,2.955,0,1,0-5.91,0v3.38a54.809,54.809,0,0,0,54.66,54.83,54.747,54.747,0,0,0,54.67-54.83V1950.5h22.5a5.354,5.354,0,0,0,5.34-5.35v-8.78A5.363,5.363,0,0,0,1254.67,1931.01Zm-77.17,40.7a15.73,15.73,0,1,0,15.69,15.73A15.729,15.729,0,0,0,1177.5,1971.71Zm0,25.53a9.805,9.805,0,1,1,9.78-9.8A9.8,9.8,0,0,1,1177.5,1997.24Zm-67.47,41.69a30.009,30.009,0,0,0,26.71,19.06,2.962,2.962,0,0,0,.24-5.92,24.088,24.088,0,0,1-21.45-15.3,2.951,2.951,0,0,0-3.83-1.68,2.979,2.979,0,0,0-1.67,3.84h0Zm10.2-5.54a17.388,17.388,0,0,0,18.39,13.12,2.963,2.963,0,0,0-.55-5.9,11.454,11.454,0,0,1-12.11-8.64,2.859,2.859,0,0,0-1.15-1.7,2.935,2.935,0,0,0-2.42-.47A2.969,2.969,0,0,0,1120.23,2033.39Zm92.94-.38a4.38,4.38,0,1,1,6.1,1.03A4.4,4.4,0,0,1,1213.17,2033.01Zm29.68,5.92a2.954,2.954,0,1,0-5.5-2.16,24.074,24.074,0,0,1-21.44,15.3,2.962,2.962,0,0,0,.23,5.92,30,30,0,0,0,26.71-19.06h0Zm-12.36-9.13a2.972,2.972,0,0,0-3.57,2.17,11.443,11.443,0,0,1-12.1,8.64,2.963,2.963,0,0,0-.56,5.9,17.406,17.406,0,0,0,18.4-13.12A2.968,2.968,0,0,0,1230.49,2029.8Z" transform="translate(-1095 -1931)"/>
</svg>
