<svg xmlns="http://www.w3.org/2000/svg" width="168.438" height="175.59" viewBox="0 0 168.438 175.59">
  <defs>
    <style>
      .cls-1 {
        fill: #fff;
        fill-rule: evenodd;
      }
    </style>
  </defs>
  <path class="cls-1" d="M714.569,1899.49a3.452,3.452,0,0,0,3.446-3.45v-7.69a3.446,3.446,0,0,0-6.891,0v7.69A3.451,3.451,0,0,0,714.569,1899.49Zm82.694,56.56H789.57a3.445,3.445,0,1,0,0,6.89h7.693A3.445,3.445,0,1,0,797.263,1956.05Zm-150.4,3.45a3.445,3.445,0,0,0-3.445-3.45h-7.692a3.445,3.445,0,1,0,0,6.89h7.692A3.443,3.443,0,0,0,646.859,1959.5Zm121.307-40.53a3.447,3.447,0,0,0,2.437-1.01l5.438-5.44a3.445,3.445,0,0,0-4.873-4.87l-5.438,5.43A3.45,3.45,0,0,0,768.166,1918.97Zm-104.759-5.89-5.438-5.43a3.445,3.445,0,0,0-4.873,4.87l5.438,5.44A3.448,3.448,0,0,0,663.407,1913.08ZM778.3,2005.51a3.448,3.448,0,0,0-4.873,4.88l5.44,5.43a3.441,3.441,0,0,0,4.871,0,3.44,3.44,0,0,0,0-4.87Zm-127.452,0-5.439,5.44a3.441,3.441,0,0,0,0,4.87,3.444,3.444,0,0,0,4.873,0l5.438-5.43A3.448,3.448,0,0,0,650.843,2005.51Zm89.868,10.36a54.777,54.777,0,1,0-46.333.99v24.79a4.563,4.563,0,0,0,4.564,4.56h35.1a4.564,4.564,0,0,0,4.564-4.56v-24.77Zm-52.855-30.3a5.15,5.15,0,1,1,5.15-5.15A5.157,5.157,0,0,1,687.856,1985.57Zm28.634,35.95h0a54.655,54.655,0,0,0,15.222-2.15v7.82H701.269v-7.82A54.643,54.643,0,0,0,716.49,2021.52Zm0-45.72a10.215,10.215,0,1,1,10.217-10.21A10.226,10.226,0,0,1,716.491,1975.8Zm24.573,4.62a5.151,5.151,0,1,1,5.152,5.15A5.157,5.157,0,0,1,741.064,1980.42Zm-39.795,58.9v-5.24h30.446v5.24H701.269Zm40.437-31.88v-11.35l1.273-4.07a11.927,11.927,0,0,0,3.237.44,12.056,12.056,0,1,0-9.242-4.33l-2,6.41a3.456,3.456,0,0,0-.157,1.03v15.42a47.944,47.944,0,0,1-14.879,3.52v-32.16a17.108,17.108,0,1,0-6.891,0v32.16a47.569,47.569,0,0,1-13.788-3.09v-15.85a3.521,3.521,0,0,0-.157-1.03l-2-6.41a11.985,11.985,0,1,0-6,3.89l1.271,4.07v12.01A47.9,47.9,0,1,1,741.706,2007.44Zm-9.813-76.8a30.247,30.247,0,0,0-31.792.68,3.444,3.444,0,0,0,1.869,6.34,3.354,3.354,0,0,0,1.861-.55,23.411,23.411,0,0,1,24.584-.52A3.446,3.446,0,0,0,731.893,1930.64Zm12.686,9.73a3.445,3.445,0,1,0-6.5,2.29l0.027,0.07a3.44,3.44,0,0,0,3.249,2.3,3.293,3.293,0,0,0,1.147-.2,3.441,3.441,0,0,0,2.1-4.39ZM738.4,2055.82a3.445,3.445,0,0,0-6.5,2.29l0.026,0.08a3.456,3.456,0,0,0,3.249,2.3,3.547,3.547,0,0,0,1.147-.2,3.45,3.45,0,0,0,2.1-4.4Zm-17.445-2.21H697.823a3.445,3.445,0,1,0,0,6.89h23.129A3.445,3.445,0,1,0,720.952,2053.61Z" transform="translate(-632.281 -1884.91)"/>
</svg>
