<svg xmlns="http://www.w3.org/2000/svg" width="156.469" height="148.68" viewBox="0 0 156.469 148.68">
  <defs>
    <style>
      .cls-1 {
        fill: #fff;
        fill-rule: evenodd;
      }
    </style>
  </defs>
  <path class="cls-1" d="M271.853,1964.07a30.212,30.212,0,0,1-20.516,9.79,3.045,3.045,0,0,0-2.874,3.03v15.19a32.619,32.619,0,0,0,12.709,25.72l11.082,8.47a3.1,3.1,0,0,0,3.723,0l11.069-8.46a32.624,32.624,0,0,0,12.721-25.72v-15.2a3.038,3.038,0,0,0-2.874-3.03,30.218,30.218,0,0,1-20.516-9.79,3.058,3.058,0,0,0-4.524,0h0Zm10.718,12.16a36.142,36.142,0,0,0,11.084,3.41v12.47a26.456,26.456,0,0,1-10.32,20.87l-9.22,7.04-9.232-7.05a26.456,26.456,0,0,1-10.308-20.88v-12.45a36.218,36.218,0,0,0,19.54-9.21A36.539,36.539,0,0,0,282.571,1976.23ZM268.9,1992.51a3.069,3.069,0,0,0-4.284.56,3.026,3.026,0,0,0,.563,4.26l6.6,5.04a3.068,3.068,0,0,0,1.861.63c0.137,0,.275-0.01.413-0.02a3.065,3.065,0,0,0,2.029-1.19l7.538-9.96a3.022,3.022,0,0,0-.6-4.25,3.067,3.067,0,0,0-4.279.6l-5.684,7.51Zm78.88-16.57a3.081,3.081,0,0,0,1.5.39,3.131,3.131,0,0,0,1.542-.41,3.051,3.051,0,0,0,1.514-2.63v-16.42a3.039,3.039,0,0,0-1.554-2.65l-75.171-42.18a3.085,3.085,0,0,0-3,0l-75.171,42.18a3.038,3.038,0,0,0-1.555,2.65v16.42a3.052,3.052,0,0,0,1.515,2.63,3.083,3.083,0,0,0,3.042.02l9.83-5.51v69.51H198.944a3.047,3.047,0,0,0-3.056,3.04v14.31a3.047,3.047,0,0,0,3.056,3.04h61.42a3.04,3.04,0,1,0,0-6.08H202v-8.23H346.231v8.23H287.866a3.04,3.04,0,1,0,0,6.08h61.42a3.047,3.047,0,0,0,3.056-3.04v-14.31a3.047,3.047,0,0,0-3.056-3.04H337.955v-69.52ZM202,1958.64l72.115-40.46,72.116,40.46v9.45l-70.614-39.62a3.085,3.085,0,0,0-3,0L202,1968.09v-9.45Zm129.844,81.3H216.386V1967l57.729-32.4,57.729,32.4v72.94Zm-57.729,14.31a3.04,3.04,0,1,1-3.056,3.04A3.047,3.047,0,0,1,274.115,2054.25Z" transform="translate(-195.875 -1911.66)"/>
</svg>
